# AST/ASF file generated using VICON BodyLanguage
# -----------------------------------------------
:version 1.10
:name VICON
:units
  mass 1.0
  length 0.45
  angle deg
:documentation
   .ast/.asf automatically generated from VICON data using
   VICON BodyBuilder and BodyLanguage model FoxedUp or BRILLIANT.MOD
:root
   order TX TY TZ RX RY RZ
   axis XYZ
   position 0 0 0  
   orientation 0 0 0 
:bonedata
  begin
     id 1 
     name lhipjoint
     direction 0.541323 -0.757556 0.364798 
     length 2.47576 
     axis 0 0 0  XYZ
  end
  begin
     id 2 
     name lfemur
     direction 0.34202 -0.939693 0  
     length 7.46493  
     axis 0 0 20  XYZ
    dof rx ry rz
    limits (-160.0 20.0)
           (-70.0 70.0)
           (-60.0 70.0)
  end
  begin
     id 3 
     name ltibia
     direction 0.34202 -0.939693 0   
     length 7.73805   
     axis 0 0 20   XYZ
    dof rx
    limits (-10.0 170.0)
  end
  begin
     id 4 
     name lfoot
     direction 0.107174 -0.294458 0.949636   
     length 2.25864   
     axis -90 7.62852e-016 20   XYZ
    dof rx rz
    limits (-45.0 90.0)
           (-70.0 20.0)
  end
  begin
     id 5 
     name ltoes
     direction 1.53606e-011 -4.21934e-011 1   
     length 1.12451   
     axis -90 7.62852e-016 20   XYZ
    dof rx
    limits (-90.0 20.0)
  end
  begin
     id 6 
     name rhipjoint
     direction -0.524745 -0.766967 0.36933   
     length 2.44538  
     axis 0 0 0  XYZ 
  end
  begin
     id 7 
     name rfemur
     direction -0.34202 -0.939693 0   
     length 7.61604   
     axis 0 0 -20   XYZ
    dof rx ry rz
    limits (-160.0 20.0)
           (-70.0 70.0)
           (-70.0 60.0)
  end
  begin
     id 8 
     name rtibia
     direction -0.34202 -0.939693 0   
     length 7.61056   
     axis 0 0 -20   XYZ
    dof rx
    limits (-10.0 170.0)
 end
 begin
     id 9 
     name rfoot
     direction -0.12616 -0.346623 0.929482   
     length 2.46372  
     axis -90 -7.62852e-016 -20   XYZ
    dof rx rz
    limits (-45.0 90.0)
           (-20.0 70.0)
  end
  begin
     id 10 
     name rtoes
     direction -1.53531e-011 -4.22004e-011 1   
     length 1.21611   
     axis -90 -7.62852e-016 -20   XYZ
    dof rx
    limits (-90.0 20.0)
  end
  begin
     id 11 
     name lowerback
     direction -0.000778023 0.997293 -0.0735223   
     length 2.06139   
     axis 0 0 0   XYZ
    dof rx ry rz
    limits (-20.0 45.0)
           (-30.0 30.0)
           (-30.0 30.0)
  end
  begin
     id 12 
     name upperback
     direction 0.0222598 0.999722 -0.0078355   
     length 2.06383   
     axis 0 0 0   XYZ
    dof rx ry rz
    limits (-20.0 45.0)
           (-30.0 30.0)
           (-30.0 30.0)
  end
  begin
     id 13 
     name thorax
     direction 0.0219654 0.999405 0.0265994   
     length 2.07163   
     axis 0 0 0   XYZ
    dof rx ry rz
    limits (-20.0 45.0)
           (-30.0 30.0)
           (-30.0 30.0)
  end
  begin
     id 14 
     name lowerneck
     direction 0.0213282 0.988147 0.15202   
     length 1.75969   
     axis 0 0 0   XYZ
    dof rx ry rz
    limits (-20.0 45.0)
           (-30.0 30.0)
           (-30.0 30.0)
  end
  begin
     id 15 
     name upperneck
     direction -0.0546456 0.982624 -0.177379   
     length 1.79244   
     axis 0 0 0   XYZ
    dof rx ry rz
    limits (-20.0 45.0)
           (-30.0 30.0)
           (-30.0 30.0)
  end
  begin
     id 16
     name head
     direction -0.0199987 0.996855 -0.076686  
     length 1.80555  
     axis 0 0 0   XYZ
    dof rx ry rz
    limits (-20.0 45.0)
           (-30.0 30.0)
           (-30.0 30.0)
  end
  begin
     id 17 
     name lclavicle
     direction 0.929565 0.363219 -0.063096  
     length 3.55722  
     axis 0 0 0   XYZ
    dof ry rz
    limits (-20.0 10.0)
           (0.0 20.0)
  end
  begin
     id 18 
     name lhumerus
     direction 1 -4.48993e-011 -2.36203e-027   
     length 4.92785   
     axis 180 -30 -90   XYZ
    dof rx ry rz
    limits (-60.0 90.0)
           (-90.0 90.0)
           (-90.0 90.0)
  end
  begin
     id 19
     name lradius
     direction 1 -4.48947e-011 2.02997e-027   
     length 3.44052   
     axis 180 -30 -90   XYZ
    dof rx
    limits (-10.0 170.0)
  end
  begin
     id 20
     name lwrist
     direction 1 -4.48962e-011 1.45991e-027   
     length 1.72026   
     axis 1.49639e-024 90 90   XYZ
    dof ry
    limits (-180.0 0.0)
 end
  begin
     id 21 
     name lhand
     direction 1 -4.48984e-011 2.91906e-027   
     length 0.654326   
     axis -1.863e-015 90 90   XYZ
    dof rx rz
    limits (-90.0 90.0)
           (-45.0 45.0)
  end
  begin
     id 22 
     name lfingers
     direction 1 -4.48961e-011 5.83968e-027   
     length 0.527534   
     axis -3.72598e-015 90 90   XYZ
    dof rx
    limits (0.0 90.0)
  end
  begin
     id 23
     name lthumb
     direction 0.707107 -6.34963e-011 0.707107   
     length 0.757437   
     axis -90 45 -6.68868e-015   XYZ
    dof rx rz
    limits (-45.0 45.0)
           (-45.0 45.0)
  end
  begin
     id 24 
     name rclavicle
     direction -0.902944 0.422599 -0.0781198   
     length 3.54432  
     axis 0 0 0   XYZ 
    dof ry rz
    limits (-10.0 20.0)
           (-20.0 0.0)
  end
  begin
     id 25 
     name rhumerus
     direction -1 -4.48953e-011 -4.75835e-028  
     length 5.09181   
     axis 180 30 90   XYZ
    dof rx ry rz
    limits (-90.0 60.0)
           (-90.0 90.0)
           (-90.0 90.0)
  end
  begin
     id 26 
     name rradius
     direction -1 -4.48986e-011 -3.25889e-027   
     length 3.49865   
     axis 180 30 90   XYZ
    dof rx
    limits (-10.0 170.0)
  end
  begin
     id 27 
     name rwrist
     direction -1 -4.48963e-011 1.45989e-027   
     length 1.74933   
     axis 1.49639e-024 -90 -90   XYZ
    dof ry
    limits (-180.0 0.0)
  end
  begin
     id 28
     name rhand
     direction -1 -4.49003e-011 2.91844e-027   
     length 0.66641   
     axis -1.863e-015 -90 -90   XYZ
    dof rx rz
    limits (-90.0 90.0)
           (-45.0 45.0)
  end
  begin
     id 29
     name rfingers
     direction -1 -4.48973e-011 5.83886e-027   
     length 0.537277   
     axis -3.72598e-015 -90 -90   XYZ
    dof rx
    limits (0.0 90.0)
  end
  begin
     id 30
     name rthumb
     direction -0.707107 -6.34976e-011 0.707107   
     length 0.771425   
     axis -90 -45 6.68868e-015   XYZ
    dof rx rz
    limits (-45.0 45.0)
           (-45.0 45.0)
  end
:hierarchy
  begin
    root lhipjoint rhipjoint lowerback
    lhipjoint lfemur
    lfemur ltibia
    ltibia lfoot
    lfoot ltoes
    rhipjoint rfemur
    rfemur rtibia
    rtibia rfoot
    rfoot rtoes
    lowerback upperback
    upperback thorax
    thorax lowerneck lclavicle rclavicle
    lowerneck upperneck
    upperneck head
    lclavicle lhumerus
    lhumerus lradius
    lradius lwrist
    lwrist lhand lthumb
    lhand lfingers
    rclavicle rhumerus
    rhumerus rradius
    rradius rwrist
    rwrist rhand rthumb
    rhand rfingers
  end

#!OML:ASF H:\LiuWeirdWalks\Patient Classification 1\Patient 1\Session 1\male.ASF
:FULLY-SPECIFIED
:DEGREES
126
root -0.0682798 17.8883 -29.7876 4.17234 0.882659 0.134043
lowerback 2.42205 -1.1878 -2.22233
upperback -1.82552 -1.59384 2.703
thorax -3.1019 -0.715539 4.11949
lowerneck -19.4699 -1.88412 -0.981284
upperneck 21.7902 -1.73801 -2.34783
head 10.1638 -1.17208 -0.916915
rclavicle -1.42131e-014 -2.3059e-014
rhumerus -40.1022 -9.45111 -74.1069
rradius 29.3926
rwrist -9.0941
rhand -18.1107 1.08602
rfingers 7.12502
rthumb 8.16353 -28.7363
lclavicle -1.42131e-014 -2.3059e-014
lhumerus -36.3152 2.3838 83.8608
lradius 30.6289
lwrist 8.75324
lhand -12.9823 -1.71366
lfingers 7.12502
lthumb 13.1102 27.8542
rfemur -12.2304 -0.558996 19.386
rtibia 32.7917
rfoot -16.9211 -21.8822
rtoes -0.707811
lfemur -8.19563 -0.288381 -19.5379
ltibia 25.4117
lfoot -12.6675 17.1136
ltoes -7.5788
127
root -0.0814131 17.888 -29.7834 4.21104 0.866546 0.140705
lowerback 2.48044 -1.0741 -2.13672
upperback -1.79025 -1.44328 2.5644
thorax -3.1166 -0.643897 3.92068
lowerneck -19.3499 -2.16301 -1.06373
upperneck 21.7161 -2.18705 -2.02961
head 10.1151 -1.3462 -0.85197
rclavicle 1.85615e-014 -1.74931e-014
rhumerus -40.3372 -9.96678 -74.0844
rradius 29.4315
rwrist -9.06498
rhand -18.091 1.10776
rfingers 7.12502
rthumb 8.1825 -28.7138
lclavicle 1.85615e-014 -1.74931e-014
lhumerus -36.1786 1.65476 83.9659
lradius 30.7798
lwrist 8.94302
lhand -12.9342 -1.74975
lfingers 7.12502
lthumb 13.1566 27.8152
rfemur -12.2683 -0.5531 19.431
rtibia 32.8136
rfoot -16.9836 -21.8846
rtoes -0.652731
lfemur -8.21868 -0.271419 -19.493
ltibia 25.4081
lfoot -12.6726 17.1052
ltoes -7.57487
128
root -0.0955548 17.8876 -29.7794 4.24729 0.878121 0.166293
lowerback 2.56358 -0.966179 -2.07116
upperback -1.76556 -1.30162 2.41831
thorax -3.15411 -0.57582 3.72656
lowerneck -19.1741 -2.47215 -1.20046
upperneck 21.6055 -2.67653 -1.65553
head 10.0467 -1.53711 -0.762581
rclavicle -2.69602e-014 1.11319e-014
rhumerus -40.5899 -10.5072 -74.0488
rradius 29.457
rwrist -8.99932
rhand -18.0768 1.13224
rfingers 7.12502
rthumb 8.19623 -28.6888
lclavicle -2.69602e-014 1.11319e-014
lhumerus -36.0658 0.902694 84.0684
lradius 30.9407
lwrist 9.12399
lhand -12.9121 -1.71003
lfingers 7.12502
lthumb 13.178 27.8535
rfemur -12.3002 -0.553529 19.4612
rtibia 32.8389
rfoot -17.0544 -21.9078
rtoes -0.593552
lfemur -8.23801 -0.26013 -19.4621
ltibia 25.3969
lfoot -12.6722 17.0759
ltoes -7.57573
129
root -0.110096 17.887 -29.7751 4.28742 0.91122 0.214625
lowerback 2.65386 -0.805824 -1.98978
upperback -1.73902 -1.0915 2.19901
thorax -3.1994 -0.474704 3.44394
lowerneck -18.961 -2.87699 -1.32113
upperneck 21.4816 -3.32989 -1.18014
head 9.971 -1.79093 -0.662263
rclavicle -1.02126e-014 3.02153e-014
rhumerus -40.9069 -11.3064 -73.9875
rradius 29.4733
rwrist -8.87157
rhand -18.053 1.18507
rfingers 7.12502
rthumb 8.21919 -28.6351
lclavicle -1.02126e-014 3.02153e-014
lhumerus -35.9085 -0.096629 84.1633
lradius 31.098
lwrist 9.33405
lhand -12.9033 -1.56699
lfingers 7.12502
lthumb 13.1864 27.996
rfemur -12.3343 -0.573874 19.4678
rtibia 32.868
rfoot -17.1268 -21.9349
rtoes -0.541416
lfemur -8.25851 -0.257721 -19.4532
ltibia 25.3782
lfoot -12.6669 17.0343
ltoes -7.58705
130
root -0.124763 17.8863 -29.7702 4.33015 0.944208 0.269244
lowerback 2.70905 -0.863671 -2.03939
upperback -1.71199 -1.17085 2.226
thorax -3.19534 -0.513319 3.50477
lowerneck -18.855 -2.92386 -1.5191
upperneck 21.3539 -3.37408 -1.03481
head 9.91274 -1.81037 -0.581409
rclavicle 7.92654e-015 -2.62396e-014
rhumerus -40.9545 -11.2541 -73.9471
rradius 29.4316
rwrist -8.83619
rhand -18.0388 1.21005
rfingers 7.12502
rthumb 8.23287 -28.6095
lclavicle 7.92654e-015 -2.62396e-014
lhumerus -35.9085 -0.184517 84.2703
lradius 31.2937
lwrist 9.41013
lhand -12.9049 -1.38667
lfingers 7.12502
lthumb 13.1849 28.1764
rfemur -12.3715 -0.600447 19.4668
rtibia 32.9007
rfoot -17.2 -21.9588
rtoes -0.494344
lfemur -8.27757 -0.265395 -19.4518
ltibia 25.3552
lfoot -12.6604 17.0004
ltoes -7.60067
131
root -0.139182 17.8853 -29.7643 4.37452 0.958798 0.319591
lowerback 2.76679 -0.913148 -2.07635
upperback -1.68917 -1.23857 2.25166
thorax -3.19802 -0.546266 3.55668
lowerneck -18.8329 -2.91102 -1.59339
upperneck 21.2808 -3.34377 -0.996312
head 9.88491 -1.79785 -0.550166
rclavicle -8.07563e-015 2.22639e-014
rhumerus -41.0057 -11.2272 -73.8898
rradius 29.3727
rwrist -8.79411
rhand -18.0448 1.20727
rfingers 7.12502
rthumb 8.22713 -28.6125
lclavicle -8.07563e-015 2.22639e-014
lhumerus -35.9114 -0.267283 84.37
lradius 31.4874
lwrist 9.47869
lhand -12.8704 -1.27333
lfingers 7.12502
lthumb 13.2181 28.2876
rfemur -12.4123 -0.626398 19.4665
rtibia 32.9357
rfoot -17.268 -21.9672
rtoes -0.462145
lfemur -8.29289 -0.287092 -19.4507
ltibia 25.332
lfoot -12.6551 16.9969
ltoes -7.62698
132
root -0.153585 17.8843 -29.7577 4.42924 0.942152 0.35952
lowerback 2.81267 -0.935087 -2.096
upperback -1.6687 -1.26897 2.26562
thorax -3.19975 -0.561087 3.58458
lowerneck -18.8115 -2.91769 -1.65913
upperneck 21.2211 -3.34756 -0.940644
head 9.86215 -1.79831 -0.519291
rclavicle -9.49197e-015 -1.59028e-015
rhumerus -41.075 -11.2653 -73.8182
rradius 29.31
rwrist -8.77024
rhand -18.0635 1.17618
rfingers 7.12502
rthumb 8.20903 -28.6443
lclavicle -9.49197e-015 -1.59028e-015
lhumerus -35.9093 -0.398228 84.4647
lradius 31.6801
lwrist 9.53908
lhand -12.8213 -1.23725
lfingers 7.12502
lthumb 13.2654 28.3206
rfemur -12.4686 -0.643463 19.4737
rtibia 32.9725
rfoot -17.3316 -21.9552
rtoes -0.436678
lfemur -8.3163 -0.303876 -19.4423
ltibia 25.3126
lfoot -12.654 17.0174
ltoes -7.64896
133
root -0.168161 17.8833 -29.7505 4.49101 0.896331 0.392112
lowerback 2.83942 -0.942186 -2.10565
upperback -1.63637 -1.27905 2.27724
thorax -3.18021 -0.566539 3.60268
lowerneck -18.8348 -2.92565 -1.71621
upperneck 21.1834 -3.35468 -0.884907
head 9.85533 -1.7995 -0.491339
rclavicle -3.37437e-014 3.33958e-014
rhumerus -41.1307 -11.3065 -73.7599
rradius 29.2578
rwrist -8.78323
rhand -18.1183 1.09501
rfingers 7.12502
rthumb 8.15611 -28.7276
lclavicle -3.37437e-014 3.33958e-014
lhumerus -35.8802 -0.52942 84.5501
lradius 31.8718
lwrist 9.59834
lhand -12.773 -1.22279
lfingers 7.12502
lthumb 13.312 28.332
rfemur -12.5364 -0.648054 19.4868
rtibia 33.0121
rfoot -17.3948 -21.9281
rtoes -0.412377
lfemur -8.3451 -0.301339 -19.4276
ltibia 25.2971
lfoot -12.6577 17.0467
ltoes -7.67452
134
root -0.183099 17.8821 -29.7434 4.56187 0.82213 0.421096
lowerback 2.8566 -0.940925 -2.11209
upperback -1.60844 -1.27766 2.28983
thorax -3.16074 -0.566274 3.61923
lowerneck -18.8336 -2.92552 -1.76178
upperneck 21.1133 -3.35155 -0.840791
head 9.83197 -1.79641 -0.467106
rclavicle 4.37326e-015 8.74653e-015
rhumerus -41.1871 -11.3487 -73.6967
rradius 29.194
rwrist -8.79578
rhand -18.1763 1.00317
rfingers 7.12502
rthumb 8.10015 -28.8216
lclavicle 4.37326e-015 8.74653e-015
lhumerus -35.8621 -0.632225 84.6222
lradius 32.0624
lwrist 9.63969
lhand -12.7447 -1.29414
lfingers 7.12502
lthumb 13.3393 28.2589
rfemur -12.6209 -0.641061 19.5023
rtibia 33.0569
rfoot -17.4591 -21.8858
rtoes -0.387933
lfemur -8.38289 -0.281873 -19.4102
ltibia 25.2842
lfoot -12.6649 17.0852
ltoes -7.69379
135
root -0.199034 17.8808 -29.7357 4.6317 0.758554 0.454574
lowerback 2.87114 -0.94304 -2.13329
upperback -1.58043 -1.28128 2.30608
thorax -3.13895 -0.568205 3.64812
lowerneck -18.8276 -2.92102 -1.80118
upperneck 21.0387 -3.34082 -0.810583
head 9.80572 -1.79095 -0.447577
rclavicle 4.62174e-015 -1.82882e-014
rhumerus -41.2488 -11.363 -73.6395
rradius 29.1398
rwrist -8.84218
rhand -18.2278 0.902473
rfingers 7.12502
rthumb 8.05045 -28.9242
lclavicle 4.62174e-015 -1.82882e-014
lhumerus -35.8519 -0.711072 84.6879
lradius 32.262
lwrist 9.68638
lhand -12.7234 -1.39532
lfingers 7.12502
lthumb 13.3598 28.1564
rfemur -12.7017 -0.635209 19.5186
rtibia 33.1074
rfoot -17.5365 -21.8533
rtoes -0.35155
lfemur -8.41865 -0.252804 -19.3913
ltibia 25.2716
lfoot -12.6787 17.1048
ltoes -7.71334
136
root -0.215607 17.8793 -29.7277 4.69829 0.70357 0.496142
lowerback 2.88777 -0.932172 -2.15616
upperback -1.54344 -1.26814 2.3072
thorax -3.11064 -0.562141 3.66128
lowerneck -18.8486 -2.9391 -1.84952
upperneck 20.9809 -3.36331 -0.759593
head 9.79115 -1.79904 -0.424613
rclavicle 7.37988e-015 1.59028e-015
rhumerus -41.3029 -11.4494 -73.574
rradius 29.0696
rwrist -8.85938
rhand -18.2709 0.823358
rfingers 7.12502
rthumb 8.00892 -29.0049
lclavicle 7.37988e-015 1.59028e-015
lhumerus -35.8146 -0.839028 84.7516
lradius 32.4552
lwrist 9.73492
lhand -12.7182 -1.51198
lfingers 7.12502
lthumb 13.3648 28.0394
rfemur -12.7786 -0.629643 19.5299
rtibia 33.1631
rfoot -17.6189 -21.8336
rtoes -0.318908
lfemur -8.44924 -0.233562 -19.3786
ltibia 25.2582
lfoot -12.6941 17.1251
ltoes -7.72061
137
root -0.232774 17.8776 -29.7194 4.76486 0.656044 0.542345
lowerback 2.90611 -0.923328 -2.18606
upperback -1.50701 -1.25797 2.31022
thorax -3.08349 -0.557376 3.68058
lowerneck -18.8722 -2.95836 -1.90408
upperneck 20.9315 -3.3839 -0.715028
head 9.78004 -1.80752 -0.402767
rclavicle 2.41523e-014 1.43125e-014
rhumerus -41.3475 -11.5446 -73.4987
rradius 28.9813
rwrist -8.86996
rhand -18.2942 0.755907
rfingers 7.12502
rthumb 7.9864 -29.0732
lclavicle 2.41523e-014 1.43125e-014
lhumerus -35.7831 -0.950282 84.812
lradius 32.6538
lwrist 9.76517
lhand -12.7245 -1.58485
lfingers 7.12502
lthumb 13.3588 27.9669
rfemur -12.8541 -0.626189 19.539
rtibia 33.2205
rfoot -17.7003 -21.824
rtoes -0.289799
lfemur -8.47844 -0.22559 -19.3693
ltibia 25.2447
lfoot -12.711 17.1499
ltoes -7.7209
